<mxfile host="Electron" agent="Mozilla/5.0 (X11; Linux x86_64) AppleWebKit/537.36 (KHTML, like Gecko) draw.io/28.0.6 Chrome/138.0.7204.100 Electron/37.2.3 Safari/537.36" version="28.0.6">
  <diagram name="Amlet Architecture" id="amlet-arch">
    <mxGraphModel dx="1223" dy="727" grid="1" gridSize="10" guides="1" tooltips="1" connect="1" arrows="1" fold="1" page="1" pageScale="1" pageWidth="1600" pageHeight="900" math="0" shadow="0">
      <root>
        <mxCell id="0" />
        <mxCell id="1" parent="0" />
        <mxCell id="vliw-input" value="VLIW Instructions" style="rounded=0;whiteSpace=wrap;html=1;fillColor=none;strokeColor=none;fontSize=17;strokeWidth=2;" parent="1" vertex="1">
          <mxGeometry x="610" y="65" width="200" height="30" as="geometry" />
        </mxCell>
        <mxCell id="loop-iter" value="Loop&lt;br&gt;Iterations" style="rounded=0;whiteSpace=wrap;html=1;fillColor=none;strokeColor=none;fontSize=17;strokeWidth=2;" parent="1" vertex="1">
          <mxGeometry x="1000" y="60" width="120" height="50" as="geometry" />
        </mxCell>
        <mxCell id="bamlet-ctrl" value="Config" style="rounded=0;whiteSpace=wrap;html=1;fillColor=none;strokeColor=none;fontSize=17;" parent="1" vertex="1">
          <mxGeometry x="1140" y="80" width="100" height="30" as="geometry" />
        </mxCell>
        <mxCell id="register-file" value="RegisterFile &amp;amp; Tagging" style="rounded=0;whiteSpace=wrap;html=1;fillColor=#99CCFF;strokeColor=#000000;fontSize=17;strokeWidth=2;" parent="1" vertex="1">
          <mxGeometry x="300" y="140" width="820" height="60" as="geometry" />
        </mxCell>
        <mxCell id="alu-rs" value="&lt;font style=&quot;font-size: 18px;&quot;&gt;ALU (data)&lt;br&gt;RS&lt;/font&gt;" style="rounded=0;whiteSpace=wrap;html=1;fillColor=#d5e8d4;strokeColor=#000000;strokeWidth=2;" parent="1" vertex="1">
          <mxGeometry x="300" y="240" width="120" height="60" as="geometry" />
        </mxCell>
        <mxCell id="alulite-rs" value="ALU (addr)&lt;br&gt;RS" style="rounded=0;whiteSpace=wrap;html=1;fillColor=#d5e8d4;strokeColor=#000000;fontSize=17;strokeWidth=2;" parent="1" vertex="1">
          <mxGeometry x="440" y="240" width="120" height="60" as="geometry" />
        </mxCell>
        <mxCell id="alupred-rs" value="ALU (pred)&lt;br&gt;RS" style="rounded=0;whiteSpace=wrap;html=1;fillColor=#d5e8d4;strokeColor=#000000;fontSize=17;strokeWidth=2;" parent="1" vertex="1">
          <mxGeometry x="580" y="240" width="120" height="60" as="geometry" />
        </mxCell>
        <mxCell id="ldst-rs" value="Send&lt;br&gt;RS" style="rounded=0;whiteSpace=wrap;html=1;fillColor=#d5e8d4;strokeColor=#000000;fontSize=17;strokeWidth=2;" parent="1" vertex="1">
          <mxGeometry x="720" y="240" width="120" height="60" as="geometry" />
        </mxCell>
        <mxCell id="send-rs" value="Receive&lt;br&gt;RS" style="rounded=0;whiteSpace=wrap;html=1;fillColor=#d5e8d4;strokeColor=#000000;fontSize=17;strokeWidth=2;" parent="1" vertex="1">
          <mxGeometry x="860" y="240" width="120" height="60" as="geometry" />
        </mxCell>
        <mxCell id="recv-rs" value="Load/Store&lt;br&gt;RS" style="rounded=0;whiteSpace=wrap;html=1;fillColor=#d5e8d4;strokeColor=#000000;fontSize=17;strokeWidth=2;" parent="1" vertex="1">
          <mxGeometry x="1000" y="240" width="120" height="60" as="geometry" />
        </mxCell>
        <mxCell id="alu-exec" value="ALU (data)" style="rounded=0;whiteSpace=wrap;html=1;fillColor=#f8cecc;strokeColor=#000000;fontSize=17;strokeWidth=2;" parent="1" vertex="1">
          <mxGeometry x="300" y="340" width="120" height="60" as="geometry" />
        </mxCell>
        <mxCell id="alulite-exec" value="ALU (addr)" style="rounded=0;whiteSpace=wrap;html=1;fillColor=#f8cecc;strokeColor=#000000;fontSize=17;strokeWidth=2;" parent="1" vertex="1">
          <mxGeometry x="440" y="340" width="120" height="60" as="geometry" />
        </mxCell>
        <mxCell id="alupred-exec" value="ALU (pred)" style="rounded=0;whiteSpace=wrap;html=1;fillColor=#f8cecc;strokeColor=#000000;fontSize=17;strokeWidth=2;" parent="1" vertex="1">
          <mxGeometry x="580" y="340" width="120" height="60" as="geometry" />
        </mxCell>
        <mxCell id="datamem-exec" value="Send&lt;br&gt;Packet" style="rounded=0;whiteSpace=wrap;html=1;fillColor=#f8cecc;strokeColor=#000000;fontSize=17;strokeWidth=2;" parent="1" vertex="1">
          <mxGeometry x="720" y="340" width="120" height="60" as="geometry" />
        </mxCell>
        <mxCell id="sendif-exec" value="Receive&lt;br&gt;Packet" style="rounded=0;whiteSpace=wrap;html=1;fillColor=#f8cecc;strokeColor=#000000;fontSize=17;strokeWidth=2;" parent="1" vertex="1">
          <mxGeometry x="860" y="340" width="120" height="60" as="geometry" />
        </mxCell>
        <mxCell id="recvif-exec" value="Data&lt;br&gt;Memory" style="rounded=0;whiteSpace=wrap;html=1;fillColor=#dae8fc;strokeColor=#000000;fontSize=17;strokeWidth=2;" parent="1" vertex="1">
          <mxGeometry x="1000" y="340" width="120" height="60" as="geometry" />
        </mxCell>
        <mxCell id="network-node" value="Network Node" style="rounded=0;whiteSpace=wrap;html=1;fillColor=#ffe6cc;strokeColor=#000000;fontSize=17;strokeWidth=2;" parent="1" vertex="1">
          <mxGeometry x="720" y="520" width="260" height="60" as="geometry" />
        </mxCell>
        <mxCell id="north-io" value="North I/O" style="rounded=0;whiteSpace=wrap;html=1;fillColor=none;strokeColor=none;fontSize=15;strokeWidth=2;" parent="1" vertex="1">
          <mxGeometry x="740" y="620" width="40" height="40" as="geometry" />
        </mxCell>
        <mxCell id="south-io" value="South I/O" style="rounded=0;whiteSpace=wrap;html=1;fillColor=none;strokeColor=none;fontSize=15;strokeWidth=2;" parent="1" vertex="1">
          <mxGeometry x="860" y="620" width="40" height="40" as="geometry" />
        </mxCell>
        <mxCell id="east-io" value="East I/O" style="rounded=0;whiteSpace=wrap;html=1;fillColor=none;strokeColor=none;fontSize=15;strokeWidth=2;" parent="1" vertex="1">
          <mxGeometry x="800" y="620" width="40" height="40" as="geometry" />
        </mxCell>
        <mxCell id="west-io" value="West I/O" style="rounded=0;whiteSpace=wrap;html=1;fillColor=none;strokeColor=none;fontSize=15;strokeWidth=2;" parent="1" vertex="1">
          <mxGeometry x="920" y="620" width="40" height="40" as="geometry" />
        </mxCell>
        <mxCell id="vliw-to-rf" style="edgeStyle=orthogonalEdgeStyle;rounded=0;orthogonalLoop=1;jettySize=auto;html=1;exitX=0.5;exitY=1;exitDx=0;exitDy=0;entryX=0.5;entryY=0;entryDx=0;entryDy=0;strokeWidth=2;" parent="1" source="vliw-input" target="register-file" edge="1">
          <mxGeometry relative="1" as="geometry" />
        </mxCell>
        <mxCell id="rf-to-alu-rs" style="edgeStyle=orthogonalEdgeStyle;rounded=0;orthogonalLoop=1;jettySize=auto;html=1;exitX=0.073;exitY=1;exitDx=0;exitDy=0;entryX=0.5;entryY=0;entryDx=0;entryDy=0;strokeWidth=2;" parent="1" source="register-file" target="alu-rs" edge="1">
          <mxGeometry relative="1" as="geometry" />
        </mxCell>
        <mxCell id="rf-to-alulite-rs" style="edgeStyle=orthogonalEdgeStyle;rounded=0;orthogonalLoop=1;jettySize=auto;html=1;exitX=0.244;exitY=1;exitDx=0;exitDy=0;entryX=0.5;entryY=0;entryDx=0;entryDy=0;strokeWidth=2;" parent="1" source="register-file" target="alulite-rs" edge="1">
          <mxGeometry relative="1" as="geometry" />
        </mxCell>
        <mxCell id="rf-to-alupred-rs" style="edgeStyle=orthogonalEdgeStyle;rounded=0;orthogonalLoop=1;jettySize=auto;html=1;exitX=0.415;exitY=1;exitDx=0;exitDy=0;entryX=0.5;entryY=0;entryDx=0;entryDy=0;strokeWidth=2;" parent="1" source="register-file" target="alupred-rs" edge="1">
          <mxGeometry relative="1" as="geometry" />
        </mxCell>
        <mxCell id="rf-to-ldst-rs" style="edgeStyle=orthogonalEdgeStyle;rounded=0;orthogonalLoop=1;jettySize=auto;html=1;exitX=0.585;exitY=1;exitDx=0;exitDy=0;entryX=0.5;entryY=0;entryDx=0;entryDy=0;strokeWidth=2;" parent="1" source="register-file" target="ldst-rs" edge="1">
          <mxGeometry relative="1" as="geometry" />
        </mxCell>
        <mxCell id="rf-to-send-rs" style="edgeStyle=orthogonalEdgeStyle;rounded=0;orthogonalLoop=1;jettySize=auto;html=1;exitX=0.756;exitY=1;exitDx=0;exitDy=0;entryX=0.5;entryY=0;entryDx=0;entryDy=0;strokeWidth=2;" parent="1" source="register-file" target="send-rs" edge="1">
          <mxGeometry relative="1" as="geometry" />
        </mxCell>
        <mxCell id="rf-to-recv-rs" style="edgeStyle=orthogonalEdgeStyle;rounded=0;orthogonalLoop=1;jettySize=auto;html=1;exitX=0.927;exitY=1;exitDx=0;exitDy=0;entryX=0.5;entryY=0;entryDx=0;entryDy=0;strokeWidth=2;" parent="1" source="register-file" target="recv-rs" edge="1">
          <mxGeometry relative="1" as="geometry" />
        </mxCell>
        <mxCell id="alu-rs-to-exec" style="edgeStyle=orthogonalEdgeStyle;rounded=0;orthogonalLoop=1;jettySize=auto;html=1;exitX=0.5;exitY=1;exitDx=0;exitDy=0;entryX=0.5;entryY=0;entryDx=0;entryDy=0;" parent="1" source="alu-rs" target="alu-exec" edge="1">
          <mxGeometry relative="1" as="geometry" />
        </mxCell>
        <mxCell id="alulite-rs-to-exec" style="edgeStyle=orthogonalEdgeStyle;rounded=0;orthogonalLoop=1;jettySize=auto;html=1;exitX=0.5;exitY=1;exitDx=0;exitDy=0;entryX=0.5;entryY=0;entryDx=0;entryDy=0;" parent="1" source="alulite-rs" target="alulite-exec" edge="1">
          <mxGeometry relative="1" as="geometry" />
        </mxCell>
        <mxCell id="alupred-rs-to-exec" style="edgeStyle=orthogonalEdgeStyle;rounded=0;orthogonalLoop=1;jettySize=auto;html=1;exitX=0.5;exitY=1;exitDx=0;exitDy=0;entryX=0.5;entryY=0;entryDx=0;entryDy=0;" parent="1" source="alupred-rs" target="alupred-exec" edge="1">
          <mxGeometry relative="1" as="geometry" />
        </mxCell>
        <mxCell id="ldst-rs-to-exec" style="edgeStyle=orthogonalEdgeStyle;rounded=0;orthogonalLoop=1;jettySize=auto;html=1;exitX=0.5;exitY=1;exitDx=0;exitDy=0;entryX=0.5;entryY=0;entryDx=0;entryDy=0;" parent="1" source="ldst-rs" target="datamem-exec" edge="1">
          <mxGeometry relative="1" as="geometry" />
        </mxCell>
        <mxCell id="send-rs-to-exec" style="edgeStyle=orthogonalEdgeStyle;rounded=0;orthogonalLoop=1;jettySize=auto;html=1;exitX=0.5;exitY=1;exitDx=0;exitDy=0;entryX=0.5;entryY=0;entryDx=0;entryDy=0;" parent="1" source="send-rs" target="sendif-exec" edge="1">
          <mxGeometry relative="1" as="geometry" />
        </mxCell>
        <mxCell id="recv-rs-to-exec" style="edgeStyle=orthogonalEdgeStyle;rounded=0;orthogonalLoop=1;jettySize=auto;html=1;exitX=0.5;exitY=1;exitDx=0;exitDy=0;entryX=0.5;entryY=0;entryDx=0;entryDy=0;" parent="1" source="recv-rs" target="recvif-exec" edge="1">
          <mxGeometry relative="1" as="geometry" />
        </mxCell>
        <mxCell id="rb-to-rf" style="edgeStyle=orthogonalEdgeStyle;rounded=0;orthogonalLoop=1;jettySize=auto;html=1;entryX=0;entryY=0.5;entryDx=0;entryDy=0;strokeStyle=dashed;strokeColor=#666666;strokeWidth=5;" parent="1" target="register-file" edge="1">
          <mxGeometry relative="1" as="geometry">
            <mxPoint x="1060" y="440" as="sourcePoint" />
            <Array as="points">
              <mxPoint x="240" y="440" />
              <mxPoint x="240" y="170" />
            </Array>
          </mxGeometry>
        </mxCell>
        <mxCell id="recvif-to-ctrl" style="edgeStyle=orthogonalEdgeStyle;rounded=0;orthogonalLoop=1;jettySize=auto;html=1;exitX=0.75;exitY=1;exitDx=0;exitDy=0;entryX=0.5;entryY=1;entryDx=0;entryDy=0;strokeWidth=2;" parent="1" source="sendif-exec" target="bamlet-ctrl" edge="1">
          <mxGeometry relative="1" as="geometry">
            <Array as="points">
              <mxPoint x="950" y="420" />
              <mxPoint x="1190" y="420" />
            </Array>
          </mxGeometry>
        </mxCell>
        <mxCell id="rf-to-loop" style="edgeStyle=orthogonalEdgeStyle;rounded=0;orthogonalLoop=1;jettySize=auto;html=1;entryX=0.5;entryY=1;entryDx=0;entryDy=0;strokeWidth=2;" parent="1" target="loop-iter" edge="1">
          <mxGeometry relative="1" as="geometry">
            <mxPoint x="1060" y="139" as="sourcePoint" />
          </mxGeometry>
        </mxCell>
        <mxCell id="sendif-to-nn" style="edgeStyle=orthogonalEdgeStyle;rounded=0;orthogonalLoop=1;jettySize=auto;html=1;exitX=0.5;exitY=1;exitDx=0;exitDy=0;entryX=0.23;entryY=0;entryDx=0;entryDy=0;strokeWidth=2;" parent="1" source="datamem-exec" target="network-node" edge="1">
          <mxGeometry relative="1" as="geometry" />
        </mxCell>
        <mxCell id="nn-to-north" style="edgeStyle=orthogonalEdgeStyle;rounded=0;orthogonalLoop=1;jettySize=auto;html=1;exitX=0.154;exitY=1;exitDx=0;exitDy=0;entryX=0.5;entryY=0;entryDx=0;entryDy=0;startArrow=classic;startFill=1;fillColor=#ffe6cc;strokeColor=#000000;strokeWidth=2;" parent="1" source="network-node" target="north-io" edge="1">
          <mxGeometry relative="1" as="geometry" />
        </mxCell>
        <mxCell id="nn-to-east" style="edgeStyle=orthogonalEdgeStyle;rounded=0;orthogonalLoop=1;jettySize=auto;html=1;exitX=0.385;exitY=1;exitDx=0;exitDy=0;entryX=0.5;entryY=0;entryDx=0;entryDy=0;startArrow=classic;startFill=1;fillColor=#ffe6cc;strokeColor=#000000;strokeWidth=2;" parent="1" source="network-node" target="east-io" edge="1">
          <mxGeometry relative="1" as="geometry" />
        </mxCell>
        <mxCell id="nn-to-south" style="edgeStyle=orthogonalEdgeStyle;rounded=0;orthogonalLoop=1;jettySize=auto;html=1;exitX=0.615;exitY=1;exitDx=0;exitDy=0;entryX=0.5;entryY=0;entryDx=0;entryDy=0;startArrow=classic;startFill=1;fillColor=#ffe6cc;strokeColor=#000000;strokeWidth=2;" parent="1" source="network-node" target="south-io" edge="1">
          <mxGeometry relative="1" as="geometry" />
        </mxCell>
        <mxCell id="nn-to-west" style="edgeStyle=orthogonalEdgeStyle;rounded=0;orthogonalLoop=1;jettySize=auto;html=1;exitX=0.846;exitY=1;exitDx=0;exitDy=0;entryX=0.5;entryY=0;entryDx=0;entryDy=0;startArrow=classic;startFill=1;fillColor=#ffe6cc;strokeColor=#000000;strokeWidth=2;" parent="1" source="network-node" target="west-io" edge="1">
          <mxGeometry relative="1" as="geometry" />
        </mxCell>
        <mxCell id="M5VuJz75F4mdbU7ERMH6-1" style="edgeStyle=orthogonalEdgeStyle;rounded=0;orthogonalLoop=1;jettySize=auto;html=1;strokeStyle=dashed;strokeColor=#A4A4A4;entryX=0.25;entryY=0;entryDx=0;entryDy=0;strokeWidth=2;" parent="1" target="recv-rs" edge="1">
          <mxGeometry relative="1" as="geometry">
            <mxPoint x="240" y="220" as="sourcePoint" />
            <mxPoint x="1090" y="220" as="targetPoint" />
            <Array as="points">
              <mxPoint x="1030" y="220" />
            </Array>
          </mxGeometry>
        </mxCell>
        <mxCell id="GFcg_PQRNG52ITC8k2Fa-6" style="edgeStyle=orthogonalEdgeStyle;rounded=0;orthogonalLoop=1;jettySize=auto;html=1;exitX=0.5;exitY=1;exitDx=0;exitDy=0;entryX=0.23;entryY=0;entryDx=0;entryDy=0;startArrow=classic;startFill=1;strokeWidth=2;" edge="1" parent="1">
          <mxGeometry relative="1" as="geometry">
            <mxPoint x="919" y="400" as="sourcePoint" />
            <mxPoint x="919" y="520" as="targetPoint" />
          </mxGeometry>
        </mxCell>
        <mxCell id="GFcg_PQRNG52ITC8k2Fa-8" value="" style="endArrow=classic;html=1;rounded=0;strokeWidth=2;endFill=1;exitX=0.5;exitY=1;exitDx=0;exitDy=0;" edge="1" parent="1" source="alu-exec">
          <mxGeometry width="50" height="50" relative="1" as="geometry">
            <mxPoint x="400" y="440" as="sourcePoint" />
            <mxPoint x="360" y="440" as="targetPoint" />
          </mxGeometry>
        </mxCell>
        <mxCell id="GFcg_PQRNG52ITC8k2Fa-10" value="" style="endArrow=classic;html=1;rounded=0;strokeWidth=2;endFill=1;exitX=0.5;exitY=1;exitDx=0;exitDy=0;" edge="1" parent="1">
          <mxGeometry width="50" height="50" relative="1" as="geometry">
            <mxPoint x="499.5" y="400" as="sourcePoint" />
            <mxPoint x="499.5" y="440" as="targetPoint" />
          </mxGeometry>
        </mxCell>
        <mxCell id="GFcg_PQRNG52ITC8k2Fa-11" value="" style="endArrow=classic;html=1;rounded=0;strokeWidth=2;endFill=1;exitX=0.5;exitY=1;exitDx=0;exitDy=0;" edge="1" parent="1">
          <mxGeometry width="50" height="50" relative="1" as="geometry">
            <mxPoint x="639.5" y="400" as="sourcePoint" />
            <mxPoint x="639.5" y="440" as="targetPoint" />
          </mxGeometry>
        </mxCell>
        <mxCell id="GFcg_PQRNG52ITC8k2Fa-12" value="" style="endArrow=classic;html=1;rounded=0;strokeWidth=2;endFill=1;exitX=0.5;exitY=1;exitDx=0;exitDy=0;" edge="1" parent="1">
          <mxGeometry width="50" height="50" relative="1" as="geometry">
            <mxPoint x="890" y="400" as="sourcePoint" />
            <mxPoint x="890" y="440" as="targetPoint" />
          </mxGeometry>
        </mxCell>
        <mxCell id="GFcg_PQRNG52ITC8k2Fa-13" value="" style="endArrow=classic;html=1;rounded=0;strokeWidth=2;endFill=1;exitX=0.5;exitY=1;exitDx=0;exitDy=0;" edge="1" parent="1">
          <mxGeometry width="50" height="50" relative="1" as="geometry">
            <mxPoint x="1059.5" y="400" as="sourcePoint" />
            <mxPoint x="1059.5" y="440" as="targetPoint" />
          </mxGeometry>
        </mxCell>
        <mxCell id="GFcg_PQRNG52ITC8k2Fa-14" style="edgeStyle=orthogonalEdgeStyle;rounded=0;orthogonalLoop=1;jettySize=auto;html=1;strokeStyle=dashed;strokeColor=#A4A4A4;entryX=0.25;entryY=0;entryDx=0;entryDy=0;strokeWidth=2;" edge="1" parent="1">
          <mxGeometry relative="1" as="geometry">
            <mxPoint x="750" y="220" as="sourcePoint" />
            <mxPoint x="750" y="240" as="targetPoint" />
            <Array as="points">
              <mxPoint x="750" y="220" />
            </Array>
          </mxGeometry>
        </mxCell>
        <mxCell id="GFcg_PQRNG52ITC8k2Fa-15" style="edgeStyle=orthogonalEdgeStyle;rounded=0;orthogonalLoop=1;jettySize=auto;html=1;strokeStyle=dashed;strokeColor=#A4A4A4;entryX=0.25;entryY=0;entryDx=0;entryDy=0;strokeWidth=2;" edge="1" parent="1">
          <mxGeometry relative="1" as="geometry">
            <mxPoint x="890" y="220" as="sourcePoint" />
            <mxPoint x="890" y="240" as="targetPoint" />
            <Array as="points">
              <mxPoint x="890" y="220" />
            </Array>
          </mxGeometry>
        </mxCell>
        <mxCell id="GFcg_PQRNG52ITC8k2Fa-16" style="edgeStyle=orthogonalEdgeStyle;rounded=0;orthogonalLoop=1;jettySize=auto;html=1;strokeStyle=dashed;strokeColor=#A4A4A4;entryX=0.25;entryY=0;entryDx=0;entryDy=0;strokeWidth=2;" edge="1" parent="1">
          <mxGeometry relative="1" as="geometry">
            <mxPoint x="609.5" y="220" as="sourcePoint" />
            <mxPoint x="609.5" y="240" as="targetPoint" />
            <Array as="points">
              <mxPoint x="609.5" y="220" />
            </Array>
          </mxGeometry>
        </mxCell>
        <mxCell id="GFcg_PQRNG52ITC8k2Fa-17" style="edgeStyle=orthogonalEdgeStyle;rounded=0;orthogonalLoop=1;jettySize=auto;html=1;strokeStyle=dashed;strokeColor=#A4A4A4;entryX=0.25;entryY=0;entryDx=0;entryDy=0;strokeWidth=2;fontStyle=1" edge="1" parent="1">
          <mxGeometry relative="1" as="geometry">
            <mxPoint x="470" y="220" as="sourcePoint" />
            <mxPoint x="470" y="240" as="targetPoint" />
            <Array as="points">
              <mxPoint x="470" y="220" />
            </Array>
          </mxGeometry>
        </mxCell>
        <mxCell id="GFcg_PQRNG52ITC8k2Fa-18" style="edgeStyle=orthogonalEdgeStyle;rounded=0;orthogonalLoop=1;jettySize=auto;html=1;strokeStyle=dashed;strokeColor=#A4A4A4;entryX=0.25;entryY=0;entryDx=0;entryDy=0;strokeWidth=2;" edge="1" parent="1">
          <mxGeometry relative="1" as="geometry">
            <mxPoint x="330" y="220" as="sourcePoint" />
            <mxPoint x="330" y="240" as="targetPoint" />
            <Array as="points">
              <mxPoint x="330" y="220" />
            </Array>
          </mxGeometry>
        </mxCell>
      </root>
    </mxGraphModel>
  </diagram>
</mxfile>
